<?xml version="1.0" encoding="utf-8"?>
<!-- Generator: Adobe Illustrator 23.1.1, SVG Export Plug-In . SVG Version: 6.00 Build 0)  -->
<svg version="1.1" id="Capa_1" xmlns="http://www.w3.org/2000/svg" xmlns:xlink="http://www.w3.org/1999/xlink" x="0px" y="0px"
	 viewBox="0 0 645 61" style="enable-background:new 0 0 645 61;" xml:space="preserve">
<style type="text/css">
	.st0{fill-rule:evenodd;clip-rule:evenodd;}
</style>
<title>women-desktop</title>
<desc>Created with Sketch.</desc>
<g id="Page-1">
	<g id="Desktop-HD" transform="translate(-392.000000, -542.000000)">
		<path id="women-desktop" class="st0" d="M612,599c-14.4,0-26.1-11.7-26.1-26.1c0-14.4,11.7-26.1,26.1-26.1c14.4,0,26.1,11.7,26.1,26.1C638.2,587.4,626.4,599,612,599L612,599zM612,542.8c-16.6,0-30.1,13.5-30.1,30.1s13.5,30.1,30.1,30.1s30.1-13.5,30.1-30.1C642.2,556.2,628.7,542.8,612,542.8L612,542.8z M569.5,600.2h3.7v-56.6h-3.7V600.2zM554,569.9h-34.5v-26.2h-3.7v56.6h3.7v-27H554v27h3.7v-56.6H554V569.9z M504.2,575c-1.6-1.4-3.4-2.6-5.4-3.7c-2-1-3.8-2-5.7-2.8c-2-0.9-3.7-1.8-5.1-2.6
c-1.4-0.9-2.6-1.7-3.6-2.7c-1-0.9-1.7-2-2.2-3.1c-0.5-1.2-0.7-2.6-0.7-4.2c0-3.3,1.2-5.8,3.5-7.4c2.4-1.6,5.3-2.4,8.9-2.4c2.2,0,4.3,0.3,6.4,0.9c2.1,0.6,4.2,1.3,6.2,2.3l0.9-3.2c-1.9-1-4-1.7-6.3-2.3c-2.4-0.6-4.8-0.9-7.4-0.9c-2.1,0-4.1,0.3-6,0.8s-3.6,1.3-5.1,2.4c-1.5,1.1-2.6,2.5-3.5,4.1c-0.9,1.7-1.3,3.6-1.3,5.9c0,2.1,0.4,3.9,1.1,5.4s1.7,2.9,3,4.1c1.3,1.2,2.8,2.3,4.6,3.3c1.8,1,3.7,2,5.8,3c1.8,0.9,3.5,1.7,5.1,2.6c1.6,0.9,3.1,1.8,4.4,2.9c1.3,1.1,2.3,2.4,3.1,3.8c0.8,1.4,1.2,3.1,1.2,5.1c0,3.7-1.3,6.6-3.9,8.7c-2.6,2.1-6.1,3.2-10.5,3.2c-2.6,0-5-0.3-7.3-0.8s-4.6-1.3-6.9-2.3l-0.9,3.1c2,1,4.5,1.7,7.3,2.3s5.5,0.9,8,0.9c2.7,0,5.1-0.4,7.3-1.1s4.1-1.8,5.7-3.1c1.6-1.4,2.8-3,3.7-4.8c0.9-1.9,1.3-3.9,1.3-6.1c0-2.4-0.5-4.6-1.6-6.4S505.8,576.4,504.2,575L504.2,575zM432.2,581.8l12.8-33.3l12.8,33.3H432.2zM443.6,543.7l-22.4,56.6h3.7
			l5.9-15.3H459l6,15.3h3.7l-22.4-56.6H443.6z M395.7,547h25.6v-3.2H392v56.6h3.7V574h24.6v-3.2h-24.6V547z M857.2,578.9l4.4-15.6
			l4.4,15.6H857.2z M890.4,599.2l-18.5-54.4c-0.2-0.5-1.1-1.1-2-1.1h-16.7c-0.8,0-1.7,0.6-2,1.1l-18.5,54.4
			c-0.2,0.5,0.1,1.1,0.7,1.1h16.2c0.7,0,1.4-0.4,1.7-1.1l2.5-8.6h15.4l2.5,8.6c0.3,0.7,1,1.1,1.7,1.1h16.2
			C890.4,600.2,890.7,599.7,890.4,599.2L890.4,599.2z M764.3,585.2c-7.2,0-13.1-5.9-13.1-13.1c0-7.2,5.9-13.1,13.1-13.1
			c7.2,0,13.1,5.9,13.1,13.1C777.5,579.2,771.6,585.2,764.3,585.2L764.3,585.2z M843,543.7h-18.3c-0.7,0-1.4,0.6-1.6,1.1l-8.6,33.7
			l-8.6-33.7c-0.2-0.6-0.8-1.1-1.6-1.1H786c-0.7,0-1.1,0.6-0.8,1.1l3.4,9.9c-5.4-7.6-14.3-12.6-24.4-12.6c-15,0-27.5,11.2-29.6,25.6
			V545c0-0.7-0.5-1.2-1.2-1.2H719c-0.6,0-1.1,0.6-1.1,1.2v25.3l-14.2-25.5c-0.3-0.7-1.1-1.1-1.9-1.1H690h-3.3H685v50.8l-35.5-50.8
			H646v56.6h3.6v-50.8l35.4,50.8h17.1c0.7,0,1.2-0.6,1.2-1.1v-25.4l14.3,25.5c0.4,0.7,1.1,1.1,1.7,1.1h14.2c0.7,0,1.2-0.6,1.2-1.1
			v-22.8c2.1,14.5,14.6,25.6,29.6,25.6c16.5,0,29.9-13.4,29.9-29.9c0-0.5,0-1,0-1.4l9.9,28.6c0.2,0.6,0.8,1.1,1.5,1.1h18
			c0.7,0,1.3-0.6,1.5-1.1l18.8-54.3C844.1,544.2,843.7,543.7,843,543.7L843,543.7z"/>
	</g>
</g>
</svg>
